<svg width="232" height="231" viewBox="0 0 232 231" fill="none" xmlns="http://www.w3.org/2000/svg">
<path d="M115.254 1.00195C178.322 1.00198 229.449 52.1284 229.449 115.196C229.449 178.264 178.322 229.391 115.254 229.391C52.1864 229.391 1.05996 178.264 1.05994 115.196C1.05994 52.1284 52.1864 1.00195 115.254 1.00195Z" fill="#0C0E21" fill-opacity="0.05"/>
<path d="M115.254 1.00195C178.322 1.00198 229.449 52.1284 229.449 115.196C229.449 178.264 178.322 229.391 115.254 229.391C52.1864 229.391 1.05996 178.264 1.05994 115.196C1.05994 52.1284 52.1864 1.00195 115.254 1.00195Z" fill="url(#paint0_linear_2013_21)" fill-opacity="0.2"/>
<path d="M115.254 1.00195C178.322 1.00198 229.449 52.1284 229.449 115.196C229.449 178.264 178.322 229.391 115.254 229.391C52.1864 229.391 1.05996 178.264 1.05994 115.196C1.05994 52.1284 52.1864 1.00195 115.254 1.00195Z" fill="url(#paint1_linear_2013_21)" fill-opacity="0.2"/>
<path d="M115.254 1.00195C178.322 1.00198 229.449 52.1284 229.449 115.196C229.449 178.264 178.322 229.391 115.254 229.391C52.1864 229.391 1.05996 178.264 1.05994 115.196C1.05994 52.1284 52.1864 1.00195 115.254 1.00195Z" stroke="url(#paint2_linear_2013_21)" stroke-width="2.00341"/>
<circle cx="115.254" cy="115.196" r="90.1536" fill="#0C0E21" fill-opacity="0.3" stroke="url(#paint3_linear_2013_21)" stroke-width="2.00341"/>
<g filter="url(#filter0_di_2013_21)">
<path d="M112.885 129.938L115.079 124.912C117.031 120.44 120.546 116.88 124.93 114.934L130.969 112.253C132.889 111.401 132.889 108.608 130.969 107.756L125.118 105.159C120.622 103.163 117.044 99.4708 115.125 94.8461L112.902 89.4906C112.078 87.5031 109.332 87.5031 108.507 89.4906L106.284 94.846C104.365 99.4708 100.787 103.163 96.2908 105.159L90.4401 107.756C88.52 108.608 88.52 111.401 90.4401 112.253L96.4794 114.934C100.863 116.88 104.378 120.44 106.331 124.912L108.525 129.938C109.368 131.869 112.041 131.869 112.885 129.938ZM134.852 142.173L135.469 140.759C136.569 138.238 138.55 136.23 141.022 135.132L142.923 134.287C143.952 133.83 143.952 132.336 142.923 131.879L141.129 131.082C138.593 129.955 136.576 127.873 135.495 125.266L134.862 123.738C134.42 122.673 132.947 122.673 132.506 123.738L131.872 125.266C130.791 127.873 128.774 129.955 126.239 131.082L124.444 131.879C123.416 132.336 123.416 133.83 124.444 134.287L126.345 135.132C128.817 136.23 130.798 138.238 131.898 140.759L132.515 142.173C132.967 143.209 134.4 143.209 134.852 142.173Z" fill="url(#paint4_linear_2013_21)"/>
</g>
<defs>
<filter id="filter0_di_2013_21" x="70.9693" y="75.9795" width="90.756" height="91.0114" filterUnits="userSpaceOnUse" color-interpolation-filters="sRGB">
<feFlood flood-opacity="0" result="BackgroundImageFix"/>
<feColorMatrix in="SourceAlpha" type="matrix" values="0 0 0 0 0 0 0 0 0 0 0 0 0 0 0 0 0 0 127 0" result="hardAlpha"/>
<feOffset dy="6.01024"/>
<feGaussianBlur stdDeviation="9.01536"/>
<feComposite in2="hardAlpha" operator="out"/>
<feColorMatrix type="matrix" values="0 0 0 0 1 0 0 0 0 1 0 0 0 0 1 0 0 0 0.2 0"/>
<feBlend mode="normal" in2="BackgroundImageFix" result="effect1_dropShadow_2013_21"/>
<feBlend mode="normal" in="SourceGraphic" in2="effect1_dropShadow_2013_21" result="shape"/>
<feColorMatrix in="SourceAlpha" type="matrix" values="0 0 0 0 0 0 0 0 0 0 0 0 0 0 0 0 0 0 127 0" result="hardAlpha"/>
<feOffset/>
<feGaussianBlur stdDeviation="2.49314"/>
<feComposite in2="hardAlpha" operator="arithmetic" k2="-1" k3="1"/>
<feColorMatrix type="matrix" values="0 0 0 0 1 0 0 0 0 1 0 0 0 0 1 0 0 0 1 0"/>
<feBlend mode="normal" in2="shape" result="effect2_innerShadow_2013_21"/>
</filter>
<linearGradient id="paint0_linear_2013_21" x1="14.5" y1="61" x2="211.5" y2="176" gradientUnits="userSpaceOnUse">
<stop offset="0.00393899" stop-color="#0356E9"/>
<stop offset="1" stop-color="#0B0F26"/>
</linearGradient>
<linearGradient id="paint1_linear_2013_21" x1="115" y1="121.5" x2="195.5" y2="197" gradientUnits="userSpaceOnUse">
<stop stop-color="white" stop-opacity="0"/>
<stop offset="1" stop-color="white" stop-opacity="0.2"/>
</linearGradient>
<linearGradient id="paint2_linear_2013_21" x1="115.254" y1="0" x2="115.254" y2="148.253" gradientUnits="userSpaceOnUse">
<stop stop-color="#005EFF"/>
<stop offset="1" stop-color="#003899" stop-opacity="0"/>
</linearGradient>
<linearGradient id="paint3_linear_2013_21" x1="115.254" y1="24.041" x2="115.254" y2="141.354" gradientUnits="userSpaceOnUse">
<stop stop-color="#005EFF"/>
<stop offset="1" stop-color="#0C0E21" stop-opacity="0"/>
</linearGradient>
<linearGradient id="paint4_linear_2013_21" x1="105.829" y1="106.683" x2="129.322" y2="142.016" gradientUnits="userSpaceOnUse">
<stop stop-color="white"/>
<stop offset="1" stop-color="#005EFF"/>
</linearGradient>
</defs>
</svg>
