<svg width="232" height="231" viewBox="0 0 232 231" fill="none" xmlns="http://www.w3.org/2000/svg">
<path d="M115.254 1.00195C178.322 1.00198 229.449 52.1284 229.449 115.196C229.449 178.264 178.322 229.391 115.254 229.391C52.1864 229.391 1.05996 178.264 1.05994 115.196C1.05994 52.1284 52.1864 1.00195 115.254 1.00195Z" fill="#0C0E21" fill-opacity="0.05"/>
<path d="M115.254 1.00195C178.322 1.00198 229.449 52.1284 229.449 115.196C229.449 178.264 178.322 229.391 115.254 229.391C52.1864 229.391 1.05996 178.264 1.05994 115.196C1.05994 52.1284 52.1864 1.00195 115.254 1.00195Z" fill="url(#paint0_linear_2013_21)" fill-opacity="0.2"/>
<path d="M115.254 1.00195C178.322 1.00198 229.449 52.1284 229.449 115.196C229.449 178.264 178.322 229.391 115.254 229.391C52.1864 229.391 1.05996 178.264 1.05994 115.196C1.05994 52.1284 52.1864 1.00195 115.254 1.00195Z" fill="url(#paint1_linear_2013_21)" fill-opacity="0.2"/>
<path d="M115.254 1.00195C178.322 1.00198 229.449 52.1284 229.449 115.196C229.449 178.264 178.322 229.391 115.254 229.391C52.1864 229.391 1.05996 178.264 1.05994 115.196C1.05994 52.1284 52.1864 1.00195 115.254 1.00195Z" stroke="url(#paint2_linear_2013_21)" stroke-width="2.00341"/>
<circle cx="115.254" cy="115.196" r="90.1536" fill="#0C0E21" fill-opacity="0.3" stroke="url(#paint3_linear_2013_21)" stroke-width="2.00341"/>
<g filter="url(#filter0_di_2013_21)">
<path d="M90.2372 145.184C88.8585 145.184 87.6785 144.693 86.697 143.711C85.715 142.729 85.224 141.549 85.224 140.171V90.0388C85.224 88.6602 85.715 87.4798 86.697 86.4978C87.6785 85.5164 88.8585 85.0256 90.2372 85.0256H107.783C109.162 85.0256 110.342 85.5164 111.324 86.4978C112.306 87.4798 112.796 88.6602 112.796 90.0388V140.171C112.796 141.549 112.306 142.729 111.324 143.711C110.342 144.693 109.162 145.184 107.783 145.184H90.2372ZM122.823 145.184C121.444 145.184 120.264 144.693 119.283 143.711C118.301 142.729 117.81 141.549 117.81 140.171V120.034C117.81 118.656 118.301 117.475 119.283 116.493C120.264 115.512 121.444 115.021 122.823 115.021H140.369C141.748 115.021 142.928 115.512 143.91 116.493C144.891 117.475 145.382 118.656 145.382 120.034V140.171C145.382 141.549 144.891 142.729 143.91 143.711C142.928 144.693 141.748 145.184 140.369 145.184H122.823ZM122.823 110.008C121.444 110.008 120.264 109.517 119.283 108.535C118.301 107.554 117.81 106.373 117.81 104.995V90.0388C117.81 88.6602 118.301 87.4798 119.283 86.4978C120.264 85.5164 121.444 85.0256 122.823 85.0256H140.369C141.748 85.0256 142.928 85.5164 143.91 86.4978C144.891 87.4798 145.382 88.6602 145.382 90.0388V104.995C145.382 106.373 144.891 107.554 143.91 108.535C142.928 109.517 141.748 110.008 140.369 110.008H122.823Z" fill="url(#paint4_linear_2013_21)"/>
</g>
<defs>
<filter id="filter0_di_2013_21" x="67.1933" y="73.0051" width="96.2196" height="96.2196" filterUnits="userSpaceOnUse" color-interpolation-filters="sRGB">
<feFlood flood-opacity="0" result="BackgroundImageFix"/>
<feColorMatrix in="SourceAlpha" type="matrix" values="0 0 0 0 0 0 0 0 0 0 0 0 0 0 0 0 0 0 127 0" result="hardAlpha"/>
<feOffset dy="6.01024"/>
<feGaussianBlur stdDeviation="9.01536"/>
<feComposite in2="hardAlpha" operator="out"/>
<feColorMatrix type="matrix" values="0 0 0 0 1 0 0 0 0 1 0 0 0 0 1 0 0 0 0.2 0"/>
<feBlend mode="normal" in2="BackgroundImageFix" result="effect1_dropShadow_2013_21"/>
<feBlend mode="normal" in="SourceGraphic" in2="effect1_dropShadow_2013_21" result="shape"/>
<feColorMatrix in="SourceAlpha" type="matrix" values="0 0 0 0 0 0 0 0 0 0 0 0 0 0 0 0 0 0 127 0" result="hardAlpha"/>
<feOffset/>
<feGaussianBlur stdDeviation="2.49314"/>
<feComposite in2="hardAlpha" operator="arithmetic" k2="-1" k3="1"/>
<feColorMatrix type="matrix" values="0 0 0 0 1 0 0 0 0 1 0 0 0 0 1 0 0 0 1 0"/>
<feBlend mode="normal" in2="shape" result="effect2_innerShadow_2013_21"/>
</filter>
<linearGradient id="paint0_linear_2013_21" x1="14.5" y1="61" x2="211.5" y2="176" gradientUnits="userSpaceOnUse">
<stop offset="0.00393899" stop-color="#0356E9"/>
<stop offset="1" stop-color="#0B0F26"/>
</linearGradient>
<linearGradient id="paint1_linear_2013_21" x1="115" y1="121.5" x2="195.5" y2="197" gradientUnits="userSpaceOnUse">
<stop stop-color="white" stop-opacity="0"/>
<stop offset="1" stop-color="white" stop-opacity="0.2"/>
</linearGradient>
<linearGradient id="paint2_linear_2013_21" x1="115.254" y1="0" x2="115.254" y2="148.253" gradientUnits="userSpaceOnUse">
<stop stop-color="#005EFF"/>
<stop offset="1" stop-color="#003899" stop-opacity="0"/>
</linearGradient>
<linearGradient id="paint3_linear_2013_21" x1="115.254" y1="24.041" x2="115.254" y2="141.354" gradientUnits="userSpaceOnUse">
<stop stop-color="#005EFF"/>
<stop offset="1" stop-color="#0C0E21" stop-opacity="0"/>
</linearGradient>
<linearGradient id="paint4_linear_2013_21" x1="103.734" y1="105.479" x2="129.407" y2="144.271" gradientUnits="userSpaceOnUse">
<stop stop-color="white"/>
<stop offset="1" stop-color="#005EFF"/>
</linearGradient>
</defs>
</svg>
